<svg width="17" height="16" viewBox="0 0 17 16" fill="none" xmlns="http://www.w3.org/2000/svg">
<path fill-rule="evenodd" clip-rule="evenodd" d="M12.0737 1.51253C12.8755 1.51253 13.24 1.65831 13.5316 1.8041C13.896 1.94989 14.1876 2.09567 14.4792 2.38724C14.7708 2.67882 14.9165 2.89749 15.0623 3.33485C15.2081 3.62642 15.281 4.06378 15.3539 4.79271C15.4268 6.90661 15.4268 9.09339 15.3539 11.2802C15.3539 12.082 15.2081 12.5194 15.0623 12.738C14.9165 13.1025 14.7708 13.3941 14.4792 13.6856C14.1876 13.9772 13.9689 14.123 13.5316 14.2688C13.24 14.3417 12.8026 14.4875 12.0737 14.5604C9.95982 14.6333 7.77303 14.6333 5.58624 14.5604C4.78442 14.5604 4.41996 14.4146 4.12838 14.2688C3.76392 14.123 3.47235 13.9772 3.18078 13.6856C2.8892 13.3941 2.74342 13.1754 2.59763 12.738C2.45185 12.4465 2.37895 12.0091 2.30606 11.2802C2.23317 9.16629 2.23317 6.9795 2.30606 4.79271C2.30606 3.99089 2.45185 3.62642 2.59763 3.33485C2.81631 2.89749 2.9621 2.67882 3.25367 2.38724C3.54524 2.09567 3.76392 1.94989 4.12838 1.8041C4.41996 1.65831 4.85731 1.58542 5.58624 1.51253C7.77303 1.36674 9.95982 1.36674 12.0737 1.51253ZM5.58624 0.0546697C4.71153 0.127563 4.12838 0.200456 3.61813 0.419134C3.10788 0.637813 2.67052 0.929385 2.23317 1.36674C1.79581 1.8041 1.50424 2.24146 1.28556 2.75171C1.06688 3.26196 0.993987 3.8451 0.921094 4.71982C0.848201 6.90661 0.848201 9.09339 0.921094 11.2802C0.993987 12.1549 1.06688 12.738 1.28556 13.2483C1.50424 13.7585 1.79581 14.1959 2.23317 14.6333C2.67052 15.0706 3.10788 15.3622 3.61813 15.5809C4.12838 15.7995 4.71153 15.9453 5.58624 15.9453C7.77303 16.0182 9.95982 16.0182 12.1466 15.9453C13.0213 15.8724 13.6045 15.7995 14.1147 15.5809C14.625 15.3622 15.0623 15.0706 15.4997 14.6333C15.937 14.1959 16.2286 13.7585 16.4473 13.2483C16.666 12.738 16.8118 12.1549 16.8118 11.2802C16.8846 9.09339 16.8846 6.90661 16.8118 4.71982C16.7389 3.8451 16.666 3.26196 16.4473 2.75171C16.2286 2.24146 15.937 1.8041 15.4997 1.36674C15.0623 0.929385 14.625 0.637813 14.1147 0.419134C13.6045 0.200456 13.0213 0.0546697 12.1466 0.0546697C9.95982 -0.0182232 7.77303 -0.0182232 5.58624 0.0546697ZM8.86642 3.918C6.60674 3.918 4.78442 5.74032 4.78442 8C4.78442 10.2597 6.60674 12.082 8.86642 12.082C11.1261 12.082 12.9484 10.2597 12.9484 8C12.9484 5.74032 11.1261 3.918 8.86642 3.918ZM8.86642 10.697C7.40857 10.697 6.16939 9.53075 6.16939 8C6.16939 6.54214 7.40857 5.30296 8.86642 5.30296C10.3243 5.30296 11.5635 6.46925 11.5635 8C11.5635 9.45786 10.3243 10.697 8.86642 10.697ZM14.1147 3.69932C14.1147 4.20957 13.6774 4.64692 13.1671 4.64692C12.6569 4.64692 12.2195 4.20957 12.2195 3.69932C12.2195 3.18907 12.6569 2.75171 13.1671 2.75171C13.6774 2.75171 14.1147 3.18907 14.1147 3.69932Z" />
</svg>
