<svg width="17" height="12" viewBox="0 0 17 12" fill="none" xmlns="http://www.w3.org/2000/svg">
<path fill-rule="evenodd" clip-rule="evenodd" d="M16.5066 5.44002C16.5066 3.60002 16.3466 1.76002 15.5466 1.12002C15.2266 0.880024 14.9866 0.720024 13.8666 0.560024C12.5066 0.400024 10.6666 0.400024 9.2266 0.400024C8.6666 0.400024 8.1066 0.400024 7.4666 0.400024C6.1066 0.400024 4.2666 0.400024 2.9066 0.560024C1.7866 0.640024 1.4666 0.800024 1.2266 1.04002C0.426602 1.76002 0.266602 3.68002 0.266602 5.52002C0.266602 5.84002 0.266602 6.24002 0.266602 6.56002C0.266602 8.40002 0.426602 10.24 1.2266 10.96C1.5466 11.2 1.7866 11.36 2.9066 11.52C4.2666 11.6 6.1066 11.6 7.4666 11.6C8.0266 11.6 8.5866 11.6 9.2266 11.6C10.6666 11.6 12.5066 11.6 13.8666 11.44C14.9866 11.36 15.2266 11.2 15.5466 10.88C16.2666 10.24 16.4266 8.40002 16.5066 6.56002C16.5066 6.16002 16.5066 5.84002 16.5066 5.44002ZM6.7466 8.48002V3.68002L10.9066 6.00002L6.7466 8.48002Z"/>
</svg>
