<svg width="19" height="22" viewBox="0 0 19 22" fill="none" xmlns="http://www.w3.org/2000/svg">
<path d="M13.128 14.2143C15.2562 10.8747 14.9887 11.2913 15.05 11.2043C15.8248 10.1114 16.2344 8.82508 16.2344 7.48438C16.2344 3.92891 13.3492 1 9.78906 1C6.24055 1 3.34375 3.92313 3.34375 7.48438C3.34375 8.82422 3.76188 10.1442 4.56211 11.2518L6.45008 14.2143C4.43152 14.5245 1 15.4489 1 17.4844C1 18.2264 1.4843 19.2838 3.79148 20.1078C5.4025 20.6831 7.53246 21 9.78906 21C14.0088 21 18.5781 19.8097 18.5781 17.4844C18.5781 15.4486 15.1506 14.5251 13.128 14.2143ZM5.54098 10.6072C5.53453 10.5971 5.52781 10.5873 5.52078 10.5776C4.85488 9.66152 4.51562 8.57582 4.51562 7.48438C4.51562 4.55398 6.87523 2.17188 9.78906 2.17188C12.6968 2.17188 15.0625 4.55504 15.0625 7.48438C15.0625 8.57758 14.7296 9.62645 14.0998 10.5184C14.0433 10.5929 14.3378 10.1354 9.78906 17.273L5.54098 10.6072ZM9.78906 19.8281C5.17992 19.8281 2.17188 18.4733 2.17188 17.4844C2.17188 16.8197 3.7175 15.7268 7.1425 15.3007L9.29492 18.6782C9.4025 18.847 9.58883 18.9492 9.78902 18.9492C9.98922 18.9492 10.1756 18.847 10.2831 18.6782L12.4355 15.3007C15.8606 15.7268 17.4062 16.8197 17.4062 17.4844C17.4062 18.4649 14.4253 19.8281 9.78906 19.8281Z" fill="#BF1F3C" stroke="#BF1F3C" stroke-width="0.5"/>
<path d="M9.78906 4.55469C8.17363 4.55469 6.85938 5.86895 6.85938 7.48438C6.85938 9.0998 8.17363 10.4141 9.78906 10.4141C11.4045 10.4141 12.7188 9.0998 12.7188 7.48438C12.7188 5.86895 11.4045 4.55469 9.78906 4.55469ZM9.78906 9.24219C8.8198 9.24219 8.03125 8.45363 8.03125 7.48438C8.03125 6.51512 8.8198 5.72656 9.78906 5.72656C10.7583 5.72656 11.5469 6.51512 11.5469 7.48438C11.5469 8.45363 10.7583 9.24219 9.78906 9.24219Z" fill="#BF1F3C" stroke="#BF1F3C" stroke-width="0.5"/>
</svg>
