<svg width="20" height="20" viewBox="0 0 20 20" fill="none" xmlns="http://www.w3.org/2000/svg">
<path d="M10 0C4.48599 0 0 4.48599 0 10C0 15.514 4.48599 20 10 20C15.514 20 20 15.514 20 10C20 4.48599 15.5139 0 10 0ZM10 17.8938C5.64725 17.8938 2.10603 14.3527 2.10603 10C2.10603 5.64725 5.64725 2.10603 10 2.10603C14.3527 2.10603 17.894 5.64725 17.894 10C17.894 14.3527 14.3527 17.8938 10 17.8938Z" fill="#BF1F3C"/>
<path d="M14.1698 10.1112H10.0702V6.56016C10.0702 5.97847 9.59887 5.50714 9.01719 5.50714C8.4355 5.50714 7.96417 5.97847 7.96417 6.56016V11.1642C7.96417 11.7459 8.4355 12.2172 9.01719 12.2172H14.1698C14.7515 12.2172 15.2228 11.7459 15.2228 11.1642C15.2228 10.5825 14.7514 10.1112 14.1698 10.1112Z" fill="#BF1F3C"/>
</svg>
