<svg width="21" height="18" viewBox="0 0 21 18" fill="none" xmlns="http://www.w3.org/2000/svg">
<path d="M16.4528 9.73091C16.1503 9.73091 15.9052 9.97608 15.9052 10.2785V15.9049H12.8846V10.2785C12.8846 9.97608 12.6395 9.73091 12.337 9.73091H8.22086C7.91838 9.73091 7.67329 9.97608 7.67329 10.2785V15.9049H4.65239V10.2785C4.65239 9.97608 4.4073 9.73091 4.10482 9.73091C3.80234 9.73091 3.55725 9.97608 3.55725 10.2785V16.4524C3.55725 16.7548 3.80234 17 4.10482 17H8.22086H12.337H16.4528C16.7553 17 17.0004 16.7548 17.0004 16.4524V10.2785C17.0004 9.97608 16.7552 9.73091 16.4528 9.73091ZM8.76843 15.9049V10.826H11.7895V15.9049H8.76843Z" fill="white" stroke="white"/>
<path d="M19.3972 9.89124L10.6656 1.16036C10.4518 0.946512 10.1051 0.946585 9.89119 1.16036L1.16038 9.89124C0.946539 10.1051 0.946539 10.4518 1.16038 10.6656C1.3743 10.8794 1.72095 10.8794 1.93479 10.6656L10.2784 2.32193L18.6229 10.6656C18.7298 10.7725 18.8699 10.826 19.01 10.826C19.1502 10.826 19.2903 10.7725 19.3973 10.6656C19.6111 10.4518 19.6111 10.1051 19.3972 9.89124Z" fill="white" stroke="white"/>
</svg>
