<svg width="22" height="17" viewBox="0 0 22 17" fill="none" xmlns="http://www.w3.org/2000/svg">
<path d="M19.2422 1H2.75781C1.78977 1 1 1.78891 1 2.75781V14.4766C1 15.4422 1.78625 16.2344 2.75781 16.2344H19.2422C20.2078 16.2344 21 15.4481 21 14.4766V2.75781C21 1.79219 20.2138 1 19.2422 1ZM18.9995 2.17188L11.0373 10.1341L3.00621 2.17188H18.9995ZM2.17188 14.2339V2.99488L7.81559 8.5902L2.17188 14.2339ZM3.00051 15.0625L8.64777 9.41523L10.6266 11.377C10.8556 11.6041 11.2253 11.6034 11.4534 11.3752L13.3828 9.44582L18.9995 15.0625H3.00051ZM19.8281 14.2339L14.2114 8.61719L19.8281 3.00047V14.2339Z" fill="#BF1F3C" stroke="#BF1F3C" stroke-width="0.5"/>
</svg>
