<svg width="22" height="22" viewBox="0 0 22 22" fill="none" xmlns="http://www.w3.org/2000/svg">
<path d="M18.7045 16.0899L15.787 13.1724C15.1797 12.5652 14.1951 12.5645 13.5871 13.1724L12.7374 14.0221C10.796 12.8365 9.16497 11.2054 7.97934 9.26399L8.91097 8.3324C9.51742 7.72587 9.51742 6.73896 8.91093 6.13244L5.99345 3.21496C5.38786 2.60944 4.40462 2.60382 3.79169 3.21679L1.95835 5.06439C1.08118 5.80093 0.772638 7.01023 1.17267 8.15637C3.2254 14.0387 7.96277 18.7761 13.8451 20.8288C14.9518 21.2149 16.0883 20.9261 16.8109 20.1817C16.8213 20.1724 16.8315 20.1629 16.8415 20.1529L18.7045 18.2898C19.311 17.6834 19.311 16.6965 18.7045 16.0899ZM17.7751 17.3605L15.9542 19.1814C15.932 19.1998 15.911 19.2199 15.8912 19.2414C15.5079 19.658 14.8914 19.8018 14.2782 19.5878C8.77084 17.6659 4.33555 13.2306 2.4137 7.72322C2.19364 7.09266 2.3524 6.43937 2.81818 6.05884C2.83587 6.04438 2.85283 6.02899 2.86892 6.01278L4.72293 4.14432C4.78438 4.08283 4.85622 4.07365 4.89353 4.07365C4.93087 4.07365 5.00263 4.08279 5.06412 4.14432L7.98152 7.0618C8.07559 7.15587 8.07559 7.30889 7.98156 7.40296L6.69073 8.69379C6.48208 8.9024 6.43805 9.22442 6.58298 9.48139C7.98379 11.9647 10.0367 14.0177 12.5201 15.4184C12.777 15.5634 13.099 15.5193 13.3077 15.3107L14.5165 14.1018C14.6106 14.0077 14.7634 14.0076 14.8577 14.1018L17.7752 17.0193C17.8692 17.1134 17.8692 17.2664 17.7751 17.3605Z" fill="#BF1F3C" stroke="#BF1F3C" stroke-width="0.5"/>
<path d="M11.5048 6.12979C11.1418 6.12979 10.8476 6.42403 10.8476 6.78699C10.8476 7.14994 11.1418 7.44418 11.5048 7.44418C13.188 7.44418 14.5573 8.81354 14.5573 10.4967C14.5573 10.8597 14.8516 11.1539 15.2145 11.1539C15.5775 11.1539 15.8717 10.8597 15.8717 10.4967C15.8717 8.0888 13.9127 6.12979 11.5048 6.12979Z" fill="#BF1F3C" stroke="#BF1F3C" stroke-width="0.5"/>
<path d="M11.5048 3.55038C11.1418 3.55038 10.8476 3.84462 10.8476 4.20758C10.8476 4.57054 11.1418 4.86478 11.5048 4.86478C14.6103 4.86478 17.1367 7.39125 17.1367 10.4967C17.1367 10.8597 17.431 11.1539 17.7939 11.1539C18.1569 11.1539 18.4511 10.8597 18.4511 10.4967C18.4511 6.66651 15.335 3.55038 11.5048 3.55038Z" fill="#BF1F3C" stroke="#BF1F3C" stroke-width="0.5"/>
<path d="M18.22 3.78149C16.4264 1.98781 14.0415 1 11.5048 1C11.1418 1 10.8476 1.29424 10.8476 1.6572C10.8476 2.02015 11.1418 2.31439 11.5048 2.31439C16.0166 2.31439 19.6872 5.98497 19.6872 10.4967C19.6872 10.8597 19.9814 11.1539 20.3444 11.1539C20.7073 11.1539 21.0016 10.8597 21.0016 10.4967C21.0015 7.96004 20.0137 5.57522 18.22 3.78149Z" fill="#BF1F3C" stroke="#BF1F3C" stroke-width="0.5"/>
</svg>
